<?xml version="1.0" encoding="utf-8"?>
<!-- Generator: Adobe Illustrator 28.2.0, SVG Export Plug-In . SVG Version: 6.00 Build 0)  -->
<svg version="1.1" id="图层_1" xmlns="http://www.w3.org/2000/svg" xmlns:xlink="http://www.w3.org/1999/xlink" x="0px" y="0px"
	 viewBox="0 0 200 200" style="enable-background:new 0 0 200 200;" xml:space="preserve">
<style type="text/css">
	.st0{fill:#FFFFFF;}
</style>
<g>
	<g>
		<circle class="st0" cx="99" cy="99" r="85"/>
	</g>
	<g>
		<path d="M99,9C49,9,9,49,9,99s40,90,90,90s90-40,90-90S149,9,99,9z M21,117l35-23c0-1,0-2,0-3c0-18,13-32,31-34c1,0,2,0,4,0
			c12,0,23,6,29,16c3-1,6-1,9-1c4,0,8,0,12,1c7,2,14,5,20,9c-6-2-12-3-19-3c-12,0-22,4-29,14c-7,9-11,20-11,32c0,15-4,29-13,42
			c-3,4-5,7-8,10C51,170,28,147,21,117z"/>
		<circle cx="104" cy="73" r="5"/>
	</g>
</g>
</svg>
